<svg width="21" height="21" viewBox="0 0 21 21" fill="none" xmlns="http://www.w3.org/2000/svg">
<path d="M10.8043 9.42237C10.4555 9.82436 10.5974 10.3242 10.7923 10.5707C11.1566 11.0321 11.6969 11.0583 11.9842 11.6403C12.2373 12.1524 12.0851 13.0822 10.9651 13.1591C9.84497 13.236 8.73344 12.3062 8.49745 11.2016C8.20504 9.8296 8.60519 8.29855 10.187 7.5138C11.7688 6.72905 13.8465 7.13279 14.9939 8.38943C16.1807 9.68628 17.022 11.3676 16.4543 13.8005C15.8866 16.2334 13.3933 18.3133 9.48928 17.8991C6.2744 17.5582 3.31431 14.5853 3.45624 10.097C3.59476 5.72408 7.14994 3.043 10.4897 2.50294C13.9422 1.9454 16.3756 3.45897 17.7967 4.61425C18.6808 5.33433 19.4417 6.13831 19.6606 6.38474C19.965 6.7273 20.4267 6.74478 20.49 6.19598C20.5738 5.47066 20.1326 4.48142 19.1032 3.2405C18.0737 2.00133 15.088 -0.408846 10.187 0.0595569C2.64568 0.777891 0.0481224 7.6344 0.562846 11.8972C1.07757 16.16 4.03424 20.851 10.8642 20.9979C15.0401 21.087 18.2669 18.3832 19.2707 14.8055C19.8265 12.8253 19.6521 10.3207 18.4773 8.37021C16.8989 5.7538 15.0982 4.69115 12.6358 4.43772C10.6641 4.23498 8.79329 4.81699 7.56206 5.9478C5.04829 8.25486 4.97134 12.4163 7.59113 14.5031C8.97456 15.606 10.623 15.8087 11.8902 15.4085C12.7606 15.1341 13.5199 14.6604 13.9662 13.7761C14.4963 12.7239 14.445 11.691 14.079 10.8818C13.7764 10.2106 13.1351 9.64608 12.5759 9.3577C11.7329 8.926 11.1326 9.04485 10.8043 9.42237Z" fill="#5264FF"/>
</svg>
